<svg preserveAspectRatio="none" overflow="visible" style="display: block;" width="21" height="21" viewBox="0 0 21 21" fill="none" xmlns="http://www.w3.org/2000/svg">
<g id="share-03">
<path id="Vector" d="M7.07324 5.31425C7.07324 5.31425 8.74022 3.25225 9.65775 2.45894C9.80526 2.33141 9.97091 2.27115 10.1355 2.27813C10.2832 2.2844 10.4299 2.34473 10.5622 2.45912C11.4795 3.25257 13.1466 5.31425 13.1466 5.31425M10.1355 3.03675V11.3876" stroke="#141B34" stroke-width="1.5" stroke-linecap="round" stroke-linejoin="round"/>
<path id="Vector_2" d="M7 8C5.9499 8 5.42485 8 5.02376 8.2725C4.67096 8.5122 4.38413 8.8946 4.20436 9.365C4 9.8998 4 10.5999 4 12V13C4 15.357 4 16.5355 4.54917 17.2678C5.09835 18 5.98224 18 7.75 18H12.25C14.0178 18 14.9016 18 15.4508 17.2678C16 16.5355 16 15.357 16 13V12C16 10.5999 16 9.8998 15.7956 9.365C15.6159 8.8946 15.3291 8.5122 14.9763 8.2725C14.5752 8 14.0501 8 13 8" stroke="#141B34" stroke-width="1.5" stroke-linecap="round" stroke-linejoin="round"/>
</g>
</svg>
